<svg width="163" height="192" viewBox="0 0 163 192" fill="none" xmlns="http://www.w3.org/2000/svg">
<path d="M33.599 19.504C33.8024 19.4705 34.0058 19.437 34.3002 19.4255C34.4917 19.404 34.5923 19.3604 34.6929 19.3168C34.8791 19.2992 35.0654 19.2816 35.382 19.2782C35.7253 19.2377 35.9382 19.1832 36.1511 19.1286C36.4129 19.0986 36.6746 19.0687 37.0489 19.0684C37.4325 19.0468 37.7036 18.9954 37.9746 18.9441C38.1632 18.9359 38.3517 18.9278 38.6569 18.9289C38.8733 18.9055 38.9732 18.8727 39.073 18.8399C39.2098 18.8457 39.3466 18.8514 39.6127 18.8966C43.2655 18.9426 46.789 18.9596 50.3124 18.9541C78.7458 18.9097 107.179 18.8579 135.613 18.8157C144.12 18.8031 152.627 18.8145 161.134 18.8114C161.497 18.8113 161.859 18.7762 162.222 18.7574C162.278 19.1452 162.333 19.5329 162.347 20.0533C162.318 20.5871 162.33 20.9882 162.341 21.3893C162.298 21.8692 162.255 22.3491 162.167 22.955C162.128 23.2464 162.135 23.4119 162.141 23.5773C162.107 23.8195 162.073 24.0617 161.997 24.4004C161.968 24.6029 161.979 24.709 161.991 24.8152C161.951 25.0181 161.911 25.221 161.827 25.5066C161.79 25.696 161.797 25.8027 161.804 25.9094C161.717 26.3489 161.63 26.7884 161.515 27.3377C161.491 27.4828 161.495 27.518 161.499 27.5532C161.32 28.2384 161.141 28.9236 160.906 29.7216C160.755 30.2282 160.661 30.6221 160.566 31.0159C159.06 35.4848 156.951 39.6306 154.043 43.363C148.742 50.1659 141.988 54.8802 133.714 57.2887C131.05 58.0643 128.25 58.3746 125.404 58.8686C125.194 58.8723 125.092 58.9051 124.989 58.938C117.099 58.9756 109.208 59.026 101.318 59.0469C94.1854 59.0658 87.0529 59.0524 79.8085 59.0255C79.5932 59.0207 79.4899 59.0436 79.3867 59.0665C72.3892 59.0641 65.3917 59.0618 58.2597 59.0274C57.6425 59.0224 57.1599 59.0727 56.6772 59.0728C38.5454 59.0768 20.4136 59.0757 2.28177 59.0792C1.88994 59.0793 1.49811 59.1245 1.10628 59.1486C0.990387 58.7444 0.762176 58.3364 0.775331 57.9363C0.998983 51.1354 2.7266 44.7477 6.18522 38.8688C10.7008 31.1933 17.0707 25.598 25.3524 22.0387C25.5856 21.9483 25.7052 21.8695 25.8249 21.7906C25.9382 21.7542 26.0516 21.7178 26.2719 21.6744C26.4997 21.5897 26.6206 21.512 26.7415 21.4342C27.342 21.2273 27.9426 21.0203 28.659 20.7961C28.9528 20.7067 29.1306 20.6344 29.3083 20.5621C30.0108 20.3733 30.7133 20.1846 31.5377 19.9964C31.7579 19.9473 31.8563 19.8977 31.9547 19.8481C32.0296 19.8352 32.1044 19.8223 32.2843 19.8158C32.4881 19.7729 32.5867 19.7236 32.6853 19.6742C32.8144 19.6548 32.9434 19.6353 33.1849 19.6263C33.3979 19.5925 33.4985 19.5483 33.599 19.504Z" fill="#02A2E0"/>
<path d="M147.582 182.565C147.503 182.626 147.425 182.687 147.247 182.776C147.054 182.913 146.959 183.021 146.864 183.129C146.722 183.241 146.579 183.354 146.335 183.496C146.134 183.628 146.036 183.732 145.937 183.836C145.937 183.836 145.876 183.876 145.787 183.89C145.599 184.009 145.501 184.114 145.402 184.219C145.321 184.277 145.239 184.335 145.059 184.416C144.86 184.543 144.76 184.645 144.66 184.748C144.66 184.748 144.597 184.785 144.508 184.797C144.315 184.907 144.211 185.005 144.107 185.103C144.107 185.103 144.043 185.139 143.955 185.152C143.761 185.26 143.656 185.354 143.551 185.449C143.425 185.527 143.299 185.605 143.063 185.704C142.73 185.883 142.508 186.043 142.286 186.202C142.157 186.274 142.028 186.346 141.787 186.437C141.333 186.676 140.992 186.897 140.651 187.117C140.651 187.117 140.648 187.126 140.575 187.126C139.937 187.416 139.372 187.707 138.807 187.998C138.575 188.099 138.344 188.201 137.988 188.31C136.361 188.888 134.859 189.459 133.356 190.029C133.182 190.071 133.008 190.112 132.721 190.148C132.481 190.205 132.355 190.266 132.229 190.328C132.16 190.348 132.092 190.369 131.941 190.368C131.739 190.4 131.619 190.453 131.498 190.507C131.43 190.526 131.361 190.544 131.211 190.541C131.008 190.574 130.888 190.63 130.768 190.686C130.699 190.705 130.63 190.724 130.472 190.724C130.208 190.762 130.033 190.819 129.858 190.877C129.788 190.889 129.719 190.902 129.554 190.885C129.226 190.923 128.995 190.991 128.763 191.058C128.694 191.073 128.624 191.088 128.458 191.071C128.148 191.095 127.937 191.152 127.726 191.208C127.602 191.22 127.478 191.233 127.217 191.225C126.687 191.274 126.295 191.344 125.903 191.413C125.833 191.418 125.762 191.422 125.555 191.401C124.871 191.385 124.324 191.401 123.777 191.402C109.037 191.432 94.2969 191.467 79.5566 191.483C75.581 191.488 71.6054 191.419 67.6298 191.414C57.6029 191.404 47.576 191.411 37.549 191.411C28.278 191.411 19.007 191.409 9.73601 191.419C9.36299 191.42 8.99011 191.54 8.61717 191.604C8.53401 191.606 8.45085 191.608 8.25683 191.548C7.84805 191.462 7.55021 191.415 7.25221 191.414C5.44109 191.407 3.62907 191.379 1.81921 191.427C1.08777 191.446 0.844866 191.203 0.911709 190.494C0.947161 190.118 0.852302 189.73 0.816269 189.347C0.827013 189.166 0.837756 188.985 0.907005 188.698C0.97224 188.175 0.978972 187.758 0.985703 187.34C0.996821 187.215 1.00794 187.09 1.07889 186.872C1.14815 186.48 1.15759 186.18 1.16702 185.881C1.1733 185.809 1.17959 185.737 1.24988 185.577C1.4016 185.11 1.49021 184.732 1.57689 184.353C2.00721 182.473 2.43701 180.593 2.86699 178.712C2.90627 178.599 2.94555 178.486 3.05759 178.288C3.84725 176.494 4.56416 174.785 5.28107 173.076C5.41035 172.827 5.53963 172.579 5.7564 172.259C6.34898 171.291 6.85408 170.393 7.35918 169.495C7.35918 169.495 7.35277 169.481 7.4169 169.472C7.54492 169.334 7.60881 169.205 7.67269 169.075C7.72995 168.994 7.78721 168.912 7.92931 168.777C8.07658 168.593 8.13901 168.463 8.20143 168.334C8.20143 168.334 8.23794 168.27 8.31334 168.222C8.69132 167.74 8.99391 167.307 9.29649 166.874C9.29649 166.874 9.33818 166.815 9.41852 166.774C9.61907 166.54 9.73927 166.348 9.85948 166.155C10.0301 165.951 10.2007 165.748 10.4655 165.492C10.6329 165.315 10.706 165.191 10.7791 165.066C11.0125 164.805 11.2458 164.544 11.5789 164.23C12.1202 163.695 12.5617 163.212 13.0031 162.729C13.3852 162.375 13.7672 162.021 14.258 161.631C14.5829 161.368 14.799 161.14 15.0151 160.912C15.1534 160.794 15.2918 160.677 15.5338 160.529C15.7985 160.339 15.9596 160.179 16.1208 160.02C16.1208 160.02 16.1213 160.008 16.1903 160.006C16.7001 159.645 17.1408 159.285 17.5816 158.925C17.5816 158.925 17.6422 158.886 17.7306 158.87C17.9178 158.75 18.0167 158.645 18.1157 158.541C18.1956 158.481 18.2754 158.422 18.4589 158.333C18.9647 158.023 19.3669 157.743 19.7691 157.464C19.7691 157.464 19.8322 157.428 19.9307 157.415C20.794 156.939 21.5588 156.475 22.3237 156.012C22.3237 156.012 22.3316 156.005 22.3884 156.006C22.5234 155.948 22.6016 155.888 22.6799 155.828C22.9803 155.677 23.2808 155.527 23.7044 155.367C25.0981 154.805 26.3688 154.252 27.6394 153.7C27.8113 153.665 27.9833 153.63 28.2864 153.564C31.9932 152.267 35.6904 151.57 39.4691 151.56C55.0335 151.52 70.5981 151.559 86.1626 151.557C110.817 151.554 135.471 151.541 160.125 151.532C160.337 151.532 160.55 151.53 160.763 151.533C162.444 151.55 162.227 151.344 162.23 153.067C162.23 153.424 162.279 153.78 162.305 154.137C162.302 154.207 162.3 154.277 162.237 154.443C162.146 154.623 162.091 154.706 162.085 154.792C161.785 158.975 160.811 162.994 159.178 166.856C158.911 167.488 158.704 168.146 158.469 168.792C158.417 168.901 158.365 169.01 158.235 169.2C158.098 169.451 158.037 169.621 157.976 169.792C157.976 169.792 157.981 169.803 157.916 169.821C157.243 170.938 156.634 172.036 156.026 173.134C156.026 173.134 155.99 173.198 155.916 173.245C155.782 173.423 155.721 173.552 155.661 173.682C155.661 173.682 155.625 173.745 155.548 173.792C155.233 174.215 154.995 174.589 154.756 174.964C154.756 174.964 154.718 175.025 154.64 175.07C154.447 175.309 154.332 175.504 154.216 175.699C154.216 175.699 154.175 175.758 154.095 175.799C153.894 176.033 153.773 176.225 153.652 176.416C153.591 176.495 153.53 176.574 153.381 176.705C153.166 176.945 153.04 177.133 152.913 177.321C152.741 177.524 152.569 177.726 152.302 177.983C151.897 178.41 151.589 178.781 151.28 179.152C151.28 179.152 151.232 179.208 151.15 179.249C150.81 179.576 150.551 179.863 150.293 180.15C150.159 180.277 150.025 180.404 149.788 180.571C149.41 180.899 149.135 181.186 148.86 181.473C148.66 181.648 148.459 181.822 148.154 182.032C147.894 182.234 147.738 182.4 147.582 182.565Z" fill="#0186DD"/>
<path d="M5.64325 106.13C5.71321 106 5.78316 105.87 5.93934 105.675C6.20926 105.241 6.39296 104.871 6.57666 104.501C6.57666 104.501 6.60991 104.437 6.6841 104.39C6.81544 104.21 6.8726 104.078 6.92975 103.946C6.92975 103.946 6.9653 103.883 7.04048 103.837C7.17329 103.659 7.23091 103.527 7.28853 103.395C7.28853 103.395 7.32496 103.332 7.4009 103.288C7.53499 103.111 7.59313 102.979 7.65127 102.847C7.65127 102.847 7.68885 102.785 7.76511 102.741C7.90627 102.569 7.97117 102.441 8.03607 102.312C8.11665 102.187 8.19723 102.062 8.36157 101.87C8.66991 101.484 8.89448 101.164 9.11905 100.845C9.11905 100.845 9.15933 100.785 9.23895 100.743C9.43856 100.509 9.55856 100.316 9.67855 100.124C9.93487 99.8118 10.1912 99.4998 10.5388 99.1158C11.2288 98.3731 11.8276 97.7026 12.4264 97.032C12.5834 96.8757 12.7404 96.7194 13.0014 96.5235C13.3148 96.2515 13.5242 96.0191 13.7336 95.7868C13.9942 95.553 14.2549 95.3192 14.6221 95.0499C14.8824 94.8451 15.0361 94.6757 15.1898 94.5063C15.567 94.2063 15.9442 93.9062 16.4309 93.5761C16.7012 93.3838 16.8619 93.2214 17.0227 93.0591C17.0227 93.0591 17.0822 93.0182 17.1729 93.0073C17.4306 92.8414 17.5975 92.6862 17.7645 92.5311C17.7645 92.5311 17.8241 92.49 17.9127 92.4744C18.0999 92.3538 18.1985 92.2487 18.2971 92.1437C18.3458 92.1094 18.3922 92.0723 18.5309 91.9993C18.8842 91.7874 19.143 91.6087 19.4017 91.43C19.4017 91.43 19.4648 91.3936 19.5595 91.3811C19.8723 91.204 20.0904 91.0394 20.3086 90.8747C20.3086 90.8747 20.3729 90.8403 20.4723 90.8307C23.1532 89.657 25.7355 88.4944 28.3134 87.3223C28.4051 87.2806 28.4541 87.1447 28.523 87.0527C28.523 87.0527 28.5876 87.0089 28.6956 87.0137C33.4181 85.534 38.1595 85.1293 42.9865 85.1501C56.2633 85.2072 69.5405 85.1708 82.8175 85.1672C83.2092 85.1671 83.6009 85.1195 83.9926 85.0941C85.7997 85.1104 87.6068 85.1267 89.5534 85.1482C89.7292 85.1371 89.7654 85.121 89.8015 85.1048C92.6133 85.1035 95.4251 85.1021 98.3735 85.1044C98.751 85.1286 98.9917 85.1672 99.2324 85.1672C108.458 85.1703 117.683 85.1712 126.909 85.1638C127.202 85.1636 127.496 85.0739 127.79 85.026C127.82 85.0451 127.85 85.0643 127.908 85.2002C127.967 85.9425 127.999 86.5681 128.031 87.1937C128.012 87.4521 127.993 87.7104 127.918 88.0835C127.829 88.3445 127.779 88.4892 127.766 88.6371C127.457 92.3649 126.687 95.9904 125.318 99.4763C124.768 100.879 124.153 102.256 123.568 103.645C123.44 103.894 123.312 104.143 123.099 104.465C122.526 105.392 122.037 106.247 121.548 107.102C121.548 107.102 121.513 107.166 121.439 107.214C121.306 107.392 121.246 107.521 121.186 107.651C121.186 107.651 121.147 107.713 121.069 107.759C120.515 108.489 120.039 109.171 119.563 109.854C119.563 109.854 119.523 109.913 119.443 109.954C119.242 110.188 119.122 110.38 119.001 110.573C118.885 110.713 118.77 110.853 118.56 111.045C118.337 111.284 118.207 111.471 118.077 111.658C117.961 111.798 117.845 111.938 117.634 112.129C116.979 112.787 116.419 113.394 115.859 114.001C115.478 114.356 115.096 114.711 114.606 115.1C114.278 115.359 114.06 115.585 113.841 115.811C113.796 115.85 113.752 115.889 113.613 115.967C113.26 116.242 113.001 116.479 112.742 116.716C112.742 116.716 112.684 116.759 112.593 116.771C112.341 116.947 112.18 117.11 112.019 117.273C112.019 117.273 111.96 117.315 111.87 117.326C111.614 117.495 111.449 117.654 111.284 117.812C111.284 117.812 111.223 117.851 111.134 117.863C110.946 117.98 110.846 118.085 110.747 118.191C110.697 118.224 110.649 118.259 110.506 118.325C110.21 118.528 110.01 118.701 109.81 118.874C109.565 119.01 109.319 119.146 108.955 119.305C108.5 119.556 108.163 119.784 107.827 120.012C107.827 120.012 107.764 120.048 107.665 120.055C107.103 120.346 106.641 120.63 106.178 120.914C105.757 121.119 105.337 121.325 104.791 121.54C104.44 121.634 104.209 121.709 103.988 121.805C99.1731 123.889 94.1555 125.121 88.8988 125.147C78.1728 125.201 67.4465 125.189 56.7203 125.192C38.6404 125.197 20.5605 125.194 2.48064 125.194C2.20716 125.194 1.93197 125.173 1.66057 125.197C1.11759 125.244 0.886856 125.038 0.913668 124.47C0.934607 124.027 0.852531 123.578 0.81623 123.132C0.825848 122.951 0.835465 122.769 0.906118 122.482C0.978461 121.9 0.98977 121.422 1.00108 120.945C1.00677 120.874 1.01246 120.802 1.07827 120.646C1.15276 120.202 1.16712 119.844 1.18148 119.485C1.18838 119.406 1.19528 119.326 1.26815 119.161C1.47464 118.46 1.60853 117.841 1.75694 117.226C2.18181 115.466 2.61258 113.707 3.04102 111.947C3.08141 111.834 3.12179 111.722 3.2364 111.527C4.08817 109.672 4.86571 107.901 5.64325 106.13Z" fill="#0194DF"/>
<path d="M83.9721 85.0402C83.6009 85.1195 83.2092 85.1671 82.8175 85.1672C69.5405 85.1708 56.2633 85.2072 42.9865 85.1501C38.1595 85.1293 33.4181 85.534 28.7328 87.0017C28.4564 86.6958 28.2882 86.3688 28.0395 86.1235C25.9428 84.0552 23.818 82.0154 21.7276 79.9408C18.0438 76.2851 14.3781 72.6111 10.7053 68.9442C7.72721 65.9708 4.74875 62.9977 1.77443 60.0205C1.54053 59.7863 1.33806 59.5208 1.11363 59.2093C1.49811 59.1245 1.88994 59.0793 2.28177 59.0792C20.4136 59.0757 38.5454 59.0768 56.6772 59.0728C57.1599 59.0727 57.6425 59.0224 58.1744 59.037C58.8019 59.7523 59.3379 60.4686 59.9659 61.0922C62.3315 63.4412 64.7498 65.7373 67.1056 68.096C70.1634 71.1575 73.1659 74.2741 76.219 77.3403C78.7766 79.9088 81.3727 82.4391 83.9721 85.0402Z" fill="#90DBF6"/>
<path d="M28.6145 153.052C25.3805 149.827 22.1465 146.603 18.8565 143.292C18.7097 143.143 18.619 143.082 18.5282 143.02C17.3189 141.807 16.1096 140.594 14.8462 139.287C14.6472 139.071 14.5023 138.95 14.3573 138.828C12.5301 137.005 10.7029 135.183 8.82269 133.263C8.61079 133.046 8.45194 132.925 8.29309 132.804C7.07991 131.612 5.86674 130.42 4.61933 129.115C4.42854 128.867 4.27199 128.73 4.11544 128.594C3.20167 127.709 2.28791 126.825 1.39159 125.823C1.78452 125.639 2.15998 125.513 2.5355 125.513C20.4848 125.503 38.4342 125.507 56.3835 125.496C57.1702 125.496 57.9294 125.482 58.5514 126.06C58.5514 126.06 58.5767 126.065 58.5924 126.135C58.8211 126.335 59.0342 126.464 59.2473 126.594C59.2635 126.625 59.2797 126.656 59.316 126.8C59.4128 127.04 59.4679 127.188 59.5696 127.29C61.485 129.215 63.4033 131.137 65.3308 133.049C65.4711 133.188 65.6863 133.252 65.8666 133.351C66.2834 133.744 66.7002 134.136 67.1484 134.647C67.5939 135.144 68.008 135.524 68.4221 135.904C68.6436 136.088 68.8651 136.272 69.1421 136.538C69.2851 136.682 69.3726 136.743 69.4601 136.805C69.5916 136.958 69.7231 137.111 69.8849 137.38C70.0868 137.634 70.2584 137.772 70.43 137.911C70.8377 138.275 71.2454 138.639 71.7159 139.061C71.7787 139.118 71.8394 139.176 71.8394 139.176C71.8394 139.176 71.8855 139.206 71.9145 139.243C71.9435 139.281 72.0048 139.335 72.0048 139.335C74.3805 141.728 76.7561 144.12 79.1848 146.607C79.3846 146.808 79.5313 146.914 79.678 147.021C80.406 147.749 81.134 148.477 81.9259 149.265C82.0113 149.349 82.0369 149.367 82.0669 149.38C82.4946 149.836 82.9222 150.292 83.3577 150.877C83 151.077 82.6344 151.211 82.2688 151.211C67.8179 151.222 53.367 151.196 38.9163 151.252C37.0338 151.26 35.1406 151.612 33.2751 151.936C31.7043 152.209 30.1667 152.673 28.6145 153.052Z" fill="#84CFF1"/>
<path d="M162.223 18.6893C161.859 18.7762 161.497 18.8113 161.134 18.8114C152.627 18.8145 144.12 18.8031 135.613 18.8157C107.179 18.8579 78.7458 18.9097 50.3124 18.9541C46.789 18.9596 43.2655 18.9426 39.6811 18.893C39.9584 18.778 40.2966 18.6431 40.635 18.6428C51.3925 18.6306 62.1501 18.6308 72.9077 18.6306C91.7487 18.6302 110.59 18.6307 129.431 18.6308C130.281 18.6308 131.132 18.6186 131.982 18.6357C132.421 18.6445 132.657 18.5287 132.655 18.0267C132.642 14.6938 132.648 11.3607 132.648 8.02772C132.648 5.91047 132.682 3.79239 132.63 1.67641C132.611 0.889688 132.885 0.710679 133.622 0.731812C139.429 0.898445 144.814 2.48114 149.816 5.42899C152.286 6.88492 154.579 8.58862 156.493 10.7026C158.206 12.5953 159.698 14.6917 161.237 16.7359C161.658 17.2947 161.899 17.989 162.223 18.6893Z" fill="#9CE6FB"/>
<path d="M147.991 137.171C148.804 137.601 149.616 138.031 150.512 138.514C150.658 138.587 150.722 138.609 150.785 138.63C153.791 140.618 156.452 142.985 158.72 145.927C158.848 146.123 158.948 146.207 159.049 146.291C159.297 146.616 159.544 146.941 159.817 147.38C159.942 147.579 160.043 147.664 160.144 147.75C160.21 147.84 160.276 147.931 160.365 148.136C160.601 148.508 160.813 148.766 161.025 149.024C161.042 149.054 161.06 149.083 161.096 149.213C161.201 149.399 161.286 149.485 161.371 149.57C161.402 149.648 161.433 149.726 161.473 149.92C161.575 150.126 161.667 150.214 161.76 150.301C161.854 150.485 161.948 150.669 161.995 150.981C161.623 151.146 161.296 151.216 160.97 151.216C151.975 151.222 142.98 151.208 133.985 151.24C133.095 151.243 132.795 151.067 132.804 150.103C132.855 144.542 132.828 138.98 132.827 133.419C133.448 133.411 134.07 133.403 134.793 133.477C135.35 133.57 135.804 133.582 136.259 133.593C136.411 133.592 136.564 133.591 136.805 133.665C137.112 133.745 137.332 133.748 137.551 133.751C137.699 133.755 137.847 133.758 138.077 133.834C138.322 133.914 138.486 133.921 138.65 133.928C138.74 133.931 138.83 133.934 139.004 134.019C139.787 134.235 140.486 134.369 141.186 134.504C141.282 134.508 141.378 134.512 141.56 134.595C142.804 135.076 143.961 135.479 145.117 135.881C145.669 136.08 146.22 136.28 146.846 136.566C147.277 136.825 147.634 136.998 147.991 137.171Z" fill="#83CFF1"/>
<path d="M127.775 84.9697C127.496 85.0739 127.202 85.1636 126.909 85.1638C117.683 85.1712 108.458 85.1703 99.2324 85.1672C98.9917 85.1672 98.751 85.1286 98.4444 85.075C98.3716 82.8971 98.3646 80.7522 98.4022 78.4956C98.4206 78.2832 98.3943 78.1825 98.368 78.0818C98.3656 77.1026 98.3632 76.1235 98.438 75.0424C98.6415 74.37 98.7948 73.8038 98.8874 73.2279C99.023 72.3844 99.4042 71.9876 100.339 72.036C101.743 72.1086 103.156 71.9967 104.562 72.0415C105.597 72.0745 106.628 72.2196 107.658 72.3408C108.129 72.3963 108.592 72.5845 109.061 72.5922C110.893 72.6225 112.737 72.4878 114.556 72.652C115.522 72.7393 116.459 73.2803 117.382 73.6786C118.12 73.997 118.818 74.4092 119.534 74.7798C119.534 74.7798 119.517 74.7906 119.524 74.8506C119.706 75.6719 120.237 75.9171 120.954 75.8948C123.298 77.8878 125.203 80.2393 126.696 82.9266C127.061 83.5833 127.407 84.2508 127.775 84.9697Z" fill="#90DBF6"/>
<path d="M119.522 74.7194C118.818 74.4092 118.12 73.997 117.382 73.6786C116.459 73.2803 115.522 72.7393 114.556 72.652C112.737 72.4878 110.893 72.6225 109.061 72.5922C108.592 72.5845 108.129 72.3963 107.658 72.3408C106.628 72.2196 105.597 72.0745 104.562 72.0415C103.156 71.9967 101.743 72.1086 100.339 72.036C99.4042 71.9876 99.023 72.3844 98.8874 73.2279C98.7948 73.8038 98.6415 74.37 98.4477 74.9575C98.3802 72.4031 98.3802 69.8317 98.3802 67.1967C99.472 67.1967 100.523 67.1007 101.55 67.2178C103.378 67.4263 105.22 67.6453 107.001 68.0838C108.512 68.4558 109.972 69.0825 111.407 69.7045C114.336 70.9735 117.11 72.5151 119.522 74.7194Z" fill="#92DCF6"/>
<path d="M132.761 133.422C132.828 138.98 132.855 144.542 132.804 150.103C132.795 151.067 133.095 151.243 133.985 151.24C142.98 151.208 151.975 151.222 160.97 151.216C161.296 151.216 161.623 151.146 162 151.044C162.209 151.206 162.496 151.429 162.504 151.662C162.531 152.453 162.459 153.248 162.365 154.089C162.279 153.78 162.23 153.424 162.23 153.067C162.227 151.344 162.444 151.55 160.763 151.533C160.55 151.53 160.337 151.532 160.125 151.532C135.471 151.541 110.817 151.554 86.1626 151.557C70.5981 151.559 55.0335 151.52 39.4691 151.56C35.6904 151.57 31.9932 152.267 28.3494 153.543C28.3638 153.418 28.4465 153.282 28.5718 153.099C30.1668 152.673 31.7043 152.209 33.2751 151.936C35.1406 151.612 37.0338 151.26 38.9163 151.252C53.367 151.196 67.8179 151.222 82.2688 151.211C82.6344 151.211 83 151.077 83.3817 150.933C83.8822 150.994 84.3664 151.242 84.8512 151.243C92.8338 151.267 100.816 151.259 108.799 151.26C116.349 151.26 123.898 151.264 131.448 151.265C132.589 151.265 132.542 151.261 132.538 150.105C132.52 144.707 132.528 139.308 132.537 133.909C132.537 133.748 132.639 133.586 132.761 133.422Z" fill="#7CC6EE"/>
<path d="M8.67944 191.644C8.99011 191.54 9.36299 191.42 9.73601 191.419C19.007 191.409 28.278 191.411 37.549 191.411C47.576 191.411 57.6029 191.404 67.6298 191.414C71.6054 191.419 75.581 191.488 79.5566 191.483C94.2969 191.467 109.037 191.432 123.777 191.402C124.324 191.401 124.871 191.385 125.502 191.407C125.095 191.521 124.604 191.674 124.113 191.675C113.054 191.695 101.994 191.702 90.9341 191.704C67.2985 191.706 43.6629 191.705 20.0273 191.703C16.2654 191.703 12.5036 191.691 8.67944 191.644Z" fill="#7CC6EE"/>
<path d="M58.5474 125.997C57.9294 125.482 57.1702 125.496 56.3835 125.496C38.4342 125.507 20.4848 125.503 2.5355 125.513C2.15998 125.513 1.78452 125.639 1.37386 125.764C0.120088 125.206 0.742247 124.144 0.764821 123.186C0.852531 123.579 0.934607 124.027 0.913668 124.47C0.886856 125.038 1.11759 125.244 1.66057 125.197C1.93197 125.173 2.20716 125.194 2.48064 125.194C20.5605 125.194 38.6404 125.197 56.7203 125.192C67.4465 125.189 78.1728 125.201 88.8988 125.147C94.1555 125.121 99.1731 123.889 103.988 121.805C104.209 121.709 104.44 121.634 104.733 121.568C103.448 122.173 102.123 122.832 100.74 123.333C97.7376 124.422 94.634 125.15 91.4389 125.283C87.9006 125.43 84.356 125.462 80.8139 125.476C74.0541 125.504 67.2941 125.483 60.5342 125.484C59.937 125.484 59.3389 125.476 58.744 125.515C58.6683 125.52 58.6098 125.788 58.5474 125.997Z" fill="#7CC6EE"/>
<path d="M123.624 103.623C124.153 102.256 124.768 100.879 125.318 99.4763C126.687 95.9904 127.457 92.3649 127.766 88.6371C127.779 88.4892 127.829 88.3445 127.919 88.1484C128.049 88.215 128.196 88.3406 128.183 88.4469C127.589 93.3861 126.446 98.1749 124.228 102.662C124.068 102.986 123.865 103.289 123.624 103.623Z" fill="#7CC6EE"/>
<path d="M158.521 168.763C158.704 168.146 158.911 167.488 159.178 166.856C160.811 162.994 161.785 158.975 162.085 154.792C162.091 154.706 162.146 154.623 162.229 154.495C162.183 155.677 162.161 156.915 161.974 158.127C161.4 161.837 160.31 165.391 158.521 168.763Z" fill="#7CC6EE"/>
<path d="M65.8591 133.29C65.6863 133.252 65.4711 133.188 65.3308 133.049C63.4033 131.137 61.485 129.215 59.5696 127.29C59.4679 127.188 59.4128 127.04 59.3275 126.851C60.1089 127.475 60.9436 128.116 61.6791 128.856C63.0996 130.284 64.464 131.768 65.8591 133.29Z" fill="#7CC6EE"/>
<path d="M0.765256 189.402C0.8523 189.73 0.947161 190.118 0.911709 190.494C0.844866 191.203 1.08777 191.446 1.81921 191.427C3.62907 191.379 5.44109 191.407 7.25221 191.414C7.55021 191.415 7.84805 191.462 8.1945 191.545C5.86648 191.635 3.48991 191.677 1.11338 191.675C0.951421 191.674 0.663916 191.349 0.651626 191.161C0.614778 190.596 0.685502 190.025 0.765256 189.402Z" fill="#7CC6EE"/>
<path d="M28.4547 87.0642C28.4541 87.1447 28.4051 87.2806 28.3134 87.3223C25.7355 88.4944 23.1532 89.657 20.505 90.8146C22.0357 89.9295 23.6044 88.9921 25.2412 88.1944C26.2352 87.71 27.3344 87.4413 28.4547 87.0642Z" fill="#7CC6EE"/>
<path d="M2.99142 111.983C2.61257 113.707 2.18181 115.466 1.75694 117.226C1.60853 117.841 1.47464 118.46 1.27685 119.102C1.25583 118.72 1.23541 118.298 1.33785 117.908C1.85492 115.941 2.40397 113.981 2.99142 111.983Z" fill="#7CC6EE"/>
<path d="M2.81596 178.747C2.43701 180.593 2.00721 182.473 1.57689 184.353C1.49021 184.732 1.4016 185.11 1.25749 185.523C1.46292 184.09 1.68639 182.615 2.00165 181.16C2.17711 180.35 2.50547 179.573 2.81596 178.747Z" fill="#7CC6EE"/>
<path d="M5.58733 106.153C4.86571 107.901 4.08817 109.672 3.25485 111.47C3.62763 109.57 4.53767 107.855 5.58733 106.153Z" fill="#7CC6EE"/>
<path d="M5.22434 173.098C4.56416 174.785 3.84725 176.494 3.07526 178.231C3.736 176.546 4.45181 174.833 5.22434 173.098Z" fill="#7CC6EE"/>
<path d="M133.429 190.047C134.859 189.459 136.361 188.888 137.931 188.337C136.499 188.926 135 189.495 133.429 190.047Z" fill="#7CC6EE"/>
<path d="M27.5702 153.678C26.3688 154.252 25.0981 154.805 23.761 155.339C24.9633 154.767 26.2321 154.211 27.5702 153.678Z" fill="#7CC6EE"/>
<path d="M156.084 173.117C156.634 172.036 157.243 170.938 157.911 169.822C157.36 170.903 156.751 172.002 156.084 173.117Z" fill="#7CC6EE"/>
<path d="M145.085 135.824C143.961 135.479 142.804 135.076 141.626 134.625C142.755 134.973 143.904 135.37 145.085 135.824Z" fill="#7CC6EE"/>
<path d="M7.29618 169.496C6.85408 170.393 6.34898 171.291 5.78575 172.207C6.22947 171.316 6.73133 170.407 7.29618 169.496Z" fill="#7CC6EE"/>
<path d="M12.3656 97.0419C11.8276 97.7026 11.2288 98.3731 10.5784 99.0696C11.1194 98.4142 11.7121 97.733 12.3656 97.0419Z" fill="#7CC6EE"/>
<path d="M121.607 107.085C122.037 106.247 122.526 105.392 123.072 104.519C122.642 105.356 122.154 106.212 121.607 107.085Z" fill="#7CC6EE"/>
<path d="M119.623 109.841C120.039 109.171 120.515 108.489 121.049 107.79C120.632 108.458 120.158 109.143 119.623 109.841Z" fill="#7CC6EE"/>
<path d="M115.921 113.997C116.419 113.394 116.979 112.787 117.599 112.171C117.101 112.772 116.542 113.382 115.921 113.997Z" fill="#7CC6EE"/>
<path d="M22.2571 156.003C21.5588 156.475 20.794 156.939 19.9627 157.398C20.661 156.927 21.4258 156.461 22.2571 156.003Z" fill="#7CC6EE"/>
<path d="M120.933 75.8381C120.237 75.9171 119.706 75.6719 119.531 74.8427C119.99 75.1103 120.451 75.4459 120.933 75.8381Z" fill="#92DCF6"/>
<path d="M12.9409 162.733C12.5616 163.212 12.1202 163.695 11.6178 164.187C11.9975 163.709 12.4381 163.223 12.9409 162.733Z" fill="#7CC6EE"/>
<path d="M128.085 87.1433C127.999 86.5681 127.967 85.9425 127.951 85.2327C128.024 85.7966 128.081 86.4447 128.085 87.1433Z" fill="#7CC6EE"/>
<path d="M141.15 134.447C140.486 134.369 139.787 134.235 139.067 134.044C139.736 134.122 140.426 134.256 141.15 134.447Z" fill="#7CC6EE"/>
<path d="M17.5167 158.921C17.1408 159.285 16.7001 159.645 16.1962 160.007C16.5726 159.646 17.0123 159.281 17.5167 158.921Z" fill="#7CC6EE"/>
<path d="M68.4137 135.844C68.008 135.524 67.5939 135.144 67.1701 134.704C67.5754 135.024 67.9903 135.403 68.4137 135.844Z" fill="#7CC6EE"/>
<path d="M138.873 188.008C139.372 187.707 139.937 187.416 140.57 187.126C140.072 187.424 139.506 187.722 138.873 188.008Z" fill="#7CC6EE"/>
<path d="M9.23685 166.888C8.9939 167.307 8.69132 167.74 8.33072 168.189C8.57421 167.771 8.87571 167.336 9.23685 166.888Z" fill="#7CC6EE"/>
<path d="M106.246 120.919C106.641 120.63 107.103 120.346 107.633 120.072C107.238 120.363 106.777 120.644 106.246 120.919Z" fill="#7CC6EE"/>
<path d="M19.7015 157.459C19.3669 157.743 18.9647 158.023 18.4983 158.302C18.834 158.019 19.2339 157.737 19.7015 157.459Z" fill="#7CC6EE"/>
<path d="M136.216 133.538C135.804 133.582 135.35 133.57 134.874 133.502C135.293 133.458 135.733 133.47 136.216 133.538Z" fill="#7CC6EE"/>
<path d="M0.948947 120.998C0.989768 121.422 0.97846 121.9 0.914988 122.415C0.874157 121.985 0.885486 121.518 0.948947 120.998Z" fill="#7CC6EE"/>
<path d="M151.341 179.143C151.589 178.781 151.897 178.41 152.266 178.028C152.018 178.39 151.71 178.762 151.341 179.143Z" fill="#7CC6EE"/>
<path d="M0.933894 187.393C0.978971 187.758 0.97224 188.175 0.915058 188.63C0.870431 188.26 0.876258 187.853 0.933894 187.393Z" fill="#7CC6EE"/>
<path d="M125.958 191.45C126.295 191.344 126.687 191.274 127.155 191.236C126.825 191.34 126.419 191.414 125.958 191.45Z" fill="#7CC6EE"/>
<path d="M162.39 21.3507C162.33 20.9882 162.318 20.5871 162.352 20.1298C162.411 20.4865 162.425 20.8993 162.39 21.3507Z" fill="#9CE6FB"/>
<path d="M154.815 174.95C154.995 174.589 155.233 174.215 155.53 173.824C155.35 174.184 155.112 174.56 154.815 174.95Z" fill="#7CC6EE"/>
<path d="M9.05955 100.859C8.89448 101.164 8.66991 101.484 8.38968 101.822C8.55603 101.519 8.77804 101.197 9.05955 100.859Z" fill="#7CC6EE"/>
<path d="M150.356 180.156C150.551 179.863 150.81 179.576 151.125 179.276C150.928 179.562 150.674 179.862 150.356 180.156Z" fill="#7CC6EE"/>
<path d="M148.923 181.474C149.135 181.186 149.41 180.899 149.747 180.608C149.534 180.895 149.259 181.185 148.923 181.474Z" fill="#7CC6EE"/>
<path d="M107.891 120.016C108.163 119.784 108.5 119.556 108.901 119.333C108.63 119.565 108.293 119.792 107.891 120.016Z" fill="#7CC6EE"/>
<path d="M1.12999 119.537C1.16712 119.844 1.15276 120.202 1.08632 120.593C1.049 120.28 1.06375 119.934 1.12999 119.537Z" fill="#7CC6EE"/>
<path d="M147.97 137.114C147.634 136.998 147.277 136.825 146.905 136.602C147.243 136.72 147.596 136.889 147.97 137.114Z" fill="#7CC6EE"/>
<path d="M160.629 31.0037C160.661 30.6221 160.755 30.2282 160.899 29.7904C160.863 30.1614 160.778 30.5764 160.629 31.0037Z" fill="#9CE6FB"/>
<path d="M6.51803 104.519C6.39296 104.871 6.20926 105.241 5.96705 105.628C6.09215 105.275 6.27577 104.906 6.51803 104.519Z" fill="#7CC6EE"/>
<path d="M140.715 187.12C140.992 186.897 141.333 186.676 141.739 186.464C141.462 186.69 141.121 186.907 140.715 187.12Z" fill="#7CC6EE"/>
<path d="M112.806 116.718C113.001 116.479 113.26 116.242 113.58 115.996C113.384 116.232 113.127 116.476 112.806 116.718Z" fill="#7CC6EE"/>
<path d="M161.033 148.964C160.813 148.766 160.601 148.508 160.381 148.189C160.596 148.387 160.818 148.645 161.033 148.964Z" fill="#7CC6EE"/>
<path d="M14.9538 160.914C14.799 161.14 14.5829 161.368 14.305 161.594C14.4597 161.367 14.6761 161.142 14.9538 160.914Z" fill="#7CC6EE"/>
<path d="M113.903 115.809C114.06 115.585 114.278 115.359 114.559 115.137C114.402 115.363 114.183 115.585 113.903 115.809Z" fill="#7CC6EE"/>
<path d="M1.11598 185.931C1.15759 186.18 1.14815 186.48 1.0886 186.81C1.0473 186.555 1.05612 186.268 1.11598 185.931Z" fill="#7CC6EE"/>
<path d="M13.6725 95.7903C13.5242 96.0191 13.3148 96.2515 13.0444 96.4886C13.1927 96.2601 13.4021 96.0269 13.6725 95.7903Z" fill="#7CC6EE"/>
<path d="M37.9295 18.8984C37.7036 18.9954 37.4325 19.0468 37.1138 19.0579C37.3389 18.9627 37.6116 18.9077 37.9295 18.8984Z" fill="#9CE6FB"/>
<path d="M19.3353 91.4274C19.143 91.6087 18.8842 91.7874 18.5628 91.9681C18.7564 91.7883 19.0127 91.6065 19.3353 91.4274Z" fill="#7CC6EE"/>
<path d="M109.874 118.886C110.01 118.701 110.21 118.528 110.47 118.353C110.332 118.533 110.135 118.715 109.874 118.886Z" fill="#7CC6EE"/>
<path d="M59.2532 126.537C59.0342 126.464 58.8211 126.335 58.5948 126.148C58.8074 126.22 59.0332 126.35 59.2532 126.537Z" fill="#7CC6EE"/>
<path d="M20.2464 90.8699C20.0904 91.0394 19.8723 91.204 19.5916 91.364C19.7474 91.1946 19.9658 91.0298 20.2464 90.8699Z" fill="#7CC6EE"/>
<path d="M79.6853 146.968C79.5313 146.914 79.3846 146.808 79.2281 146.658C79.3765 146.715 79.5346 146.815 79.6853 146.968Z" fill="#7CC6EE"/>
<path d="M142.348 186.209C142.508 186.043 142.73 185.883 143.014 185.73C142.854 185.896 142.632 186.056 142.348 186.209Z" fill="#7CC6EE"/>
<path d="M128.829 191.089C128.995 190.991 129.226 190.923 129.501 190.891C129.328 190.991 129.112 191.055 128.829 191.089Z" fill="#7CC6EE"/>
<path d="M36.1125 19.0865C35.9382 19.1832 35.7253 19.2377 35.4494 19.2586C35.6155 19.1648 35.8447 19.1046 36.1125 19.0865Z" fill="#9CE6FB"/>
<path d="M127.771 191.246C127.937 191.152 128.148 191.095 128.405 191.077C128.238 191.171 128.027 191.228 127.771 191.246Z" fill="#7CC6EE"/>
<path d="M137.512 133.703C137.332 133.748 137.112 133.745 136.877 133.695C137.064 133.65 137.268 133.653 137.512 133.703Z" fill="#7CC6EE"/>
<path d="M9.80016 166.167C9.73927 166.348 9.61906 166.54 9.44 166.745C9.50105 166.565 9.62095 166.372 9.80016 166.167Z" fill="#7CC6EE"/>
<path d="M16.0606 160.014C15.9596 160.179 15.7985 160.339 15.5772 160.496C15.6782 160.332 15.8393 160.171 16.0606 160.014Z" fill="#7CC6EE"/>
<path d="M8.29169 132.862C8.45194 132.925 8.6108 133.046 8.77768 133.218C8.62057 133.152 8.45543 133.036 8.29169 132.862Z" fill="#7CC6EE"/>
<path d="M154.275 175.685C154.332 175.504 154.447 175.309 154.62 175.1C154.563 175.281 154.448 175.476 154.275 175.685Z" fill="#7CC6EE"/>
<path d="M17.705 92.5268C17.5975 92.6862 17.4306 92.8414 17.2034 92.988C17.3106 92.8271 17.478 92.6748 17.705 92.5268Z" fill="#7CC6EE"/>
<path d="M16.9628 93.0569C16.8619 93.2214 16.7012 93.3838 16.4795 93.5407C16.58 93.3751 16.7415 93.2149 16.9628 93.0569Z" fill="#7CC6EE"/>
<path d="M15.1303 94.5103C15.0361 94.6757 14.8824 94.8451 14.6679 95.0136C14.7616 94.8467 14.9162 94.6805 15.1303 94.5103Z" fill="#7CC6EE"/>
<path d="M9.61936 100.136C9.55856 100.316 9.43856 100.509 9.25986 100.714C9.32082 100.534 9.4405 100.341 9.61936 100.136Z" fill="#7CC6EE"/>
<path d="M153.711 176.404C153.773 176.225 153.894 176.033 154.074 175.828C154.012 176.008 153.891 176.2 153.711 176.404Z" fill="#7CC6EE"/>
<path d="M152.973 177.311C153.04 177.133 153.166 176.945 153.351 176.745C153.284 176.922 153.158 177.111 152.973 177.311Z" fill="#7CC6EE"/>
<path d="M158.032 169.791C158.037 169.621 158.098 169.451 158.207 169.254C158.199 169.415 158.144 169.602 158.032 169.791Z" fill="#7CC6EE"/>
<path d="M119.059 110.559C119.122 110.38 119.242 110.188 119.422 109.983C119.36 110.162 119.239 110.354 119.059 110.559Z" fill="#7CC6EE"/>
<path d="M118.136 111.648C118.207 111.471 118.337 111.284 118.527 111.087C118.456 111.264 118.326 111.451 118.136 111.648Z" fill="#7CC6EE"/>
<path d="M147.642 182.566C147.738 182.4 147.894 182.234 148.109 182.068C148.014 182.233 147.858 182.4 147.642 182.566Z" fill="#7CC6EE"/>
<path d="M4.10976 128.653C4.27199 128.73 4.42854 128.867 4.59585 129.058C4.4391 128.979 4.27159 128.846 4.10976 128.653Z" fill="#7CC6EE"/>
<path d="M14.3467 138.882C14.5023 138.95 14.6472 139.071 14.7996 139.243C14.65 139.175 14.4931 139.056 14.3467 138.882Z" fill="#7CC6EE"/>
<path d="M70.4225 137.852C70.2584 137.772 70.0868 137.634 69.9061 137.436C70.0697 137.516 70.2424 137.654 70.4225 137.852Z" fill="#7CC6EE"/>
<path d="M112.079 117.275C112.18 117.11 112.341 116.947 112.564 116.792C112.463 116.959 112.301 117.118 112.079 117.275Z" fill="#7CC6EE"/>
<path d="M111.344 117.816C111.449 117.654 111.614 117.495 111.84 117.347C111.735 117.511 111.569 117.665 111.344 117.816Z" fill="#7CC6EE"/>
<path d="M29.2469 20.5298C29.1306 20.6344 28.9528 20.7067 28.7167 20.7616C28.8341 20.662 29.0098 20.5798 29.2469 20.5298Z" fill="#9CE6FB"/>
<path d="M162.187 23.5526C162.135 23.4119 162.128 23.2464 162.169 23.0367C162.222 23.1708 162.227 23.3493 162.187 23.5526Z" fill="#9CE6FB"/>
<path d="M138.614 133.882C138.486 133.921 138.322 133.914 138.146 133.862C138.282 133.823 138.43 133.829 138.614 133.882Z" fill="#7CC6EE"/>
<path d="M129.92 190.906C130.033 190.819 130.208 190.762 130.42 190.737C130.299 190.825 130.141 190.88 129.92 190.906Z" fill="#7CC6EE"/>
<path d="M131.554 190.533C131.619 190.453 131.739 190.4 131.889 190.378C131.815 190.459 131.712 190.509 131.554 190.533Z" fill="#7CC6EE"/>
<path d="M32.6603 19.6372C32.5867 19.7236 32.4881 19.7729 32.3368 19.7932C32.4012 19.7095 32.5182 19.6548 32.6603 19.6372Z" fill="#9CE6FB"/>
<path d="M39.0575 18.7922C38.9732 18.8727 38.8733 18.9055 38.7248 18.9089C38.7981 18.8345 38.9201 18.7895 39.0575 18.7922Z" fill="#9CE6FB"/>
<path d="M155.717 173.666C155.721 173.552 155.782 173.423 155.897 173.277C155.892 173.391 155.832 173.521 155.717 173.666Z" fill="#7CC6EE"/>
<path d="M144.718 184.754C144.76 184.645 144.86 184.543 145.018 184.444C144.975 184.551 144.875 184.655 144.718 184.754Z" fill="#7CC6EE"/>
<path d="M130.823 190.712C130.888 190.63 131.008 190.574 131.158 190.551C131.085 190.635 130.982 190.687 130.823 190.712Z" fill="#7CC6EE"/>
<path d="M144.164 185.111C144.211 185.005 144.315 184.907 144.476 184.815C144.429 184.92 144.325 185.019 144.164 185.111Z" fill="#7CC6EE"/>
<path d="M132.279 190.352C132.355 190.266 132.481 190.205 132.657 190.169C132.581 190.255 132.455 190.315 132.279 190.352Z" fill="#7CC6EE"/>
<path d="M145.459 184.221C145.501 184.114 145.599 184.009 145.757 183.909C145.715 184.018 145.615 184.121 145.459 184.221Z" fill="#7CC6EE"/>
<path d="M145.995 183.84C146.036 183.732 146.134 183.628 146.29 183.527C146.249 183.635 146.151 183.74 145.995 183.84Z" fill="#7CC6EE"/>
<path d="M146.921 183.128C146.959 183.021 147.054 182.913 147.206 182.805C147.169 182.913 147.074 183.02 146.921 183.128Z" fill="#7CC6EE"/>
<path d="M143.608 185.457C143.656 185.354 143.761 185.26 143.922 185.169C143.874 185.271 143.77 185.368 143.608 185.457Z" fill="#7CC6EE"/>
<path d="M6.87461 103.963C6.8726 104.078 6.81544 104.21 6.70225 104.358C6.70397 104.242 6.76172 104.111 6.87461 103.963Z" fill="#7CC6EE"/>
<path d="M31.929 19.8125C31.8563 19.8977 31.7579 19.9473 31.6067 19.9689C31.6703 19.8861 31.7867 19.8315 31.929 19.8125Z" fill="#9CE6FB"/>
<path d="M26.6859 21.4115C26.6206 21.512 26.4997 21.5897 26.3251 21.6476C26.391 21.5482 26.5107 21.4684 26.6859 21.4115Z" fill="#9CE6FB"/>
<path d="M25.7697 21.7688C25.7052 21.8695 25.5856 21.9483 25.4123 22.0074C25.4772 21.9074 25.5958 21.8272 25.7697 21.7688Z" fill="#9CE6FB"/>
<path d="M162.036 24.795C161.979 24.709 161.968 24.6029 161.997 24.4743C162.052 24.5595 162.066 24.6672 162.036 24.795Z" fill="#9CE6FB"/>
<path d="M161.849 25.8905C161.797 25.8027 161.79 25.696 161.825 25.5686C161.876 25.6558 161.885 25.7637 161.849 25.8905Z" fill="#9CE6FB"/>
<path d="M125.016 58.9778C125.092 58.9051 125.194 58.8723 125.324 58.8763C125.249 58.948 125.146 58.9828 125.016 58.9778Z" fill="#90DBF6"/>
<path d="M33.5755 19.4659C33.4985 19.5483 33.3979 19.5925 33.2466 19.6048C33.3146 19.5245 33.4333 19.4761 33.5755 19.4659Z" fill="#9CE6FB"/>
<path d="M79.4091 59.113C79.4899 59.0436 79.5932 59.0206 79.7232 59.033C79.6438 59.0987 79.5376 59.1291 79.4091 59.113Z" fill="#90DBF6"/>
<path d="M98.327 78.1063C98.3943 78.1825 98.4206 78.2832 98.4081 78.4099C98.3415 78.3343 98.3137 78.2325 98.327 78.1063Z" fill="#92DCF6"/>
<path d="M34.6642 19.2762C34.5923 19.3604 34.4917 19.404 34.3607 19.4123C34.432 19.3299 34.5338 19.2827 34.6642 19.2762Z" fill="#9CE6FB"/>
<path d="M18.2401 92.143C18.1985 92.2488 18.0999 92.3538 17.9432 92.4549C17.9844 92.3481 18.0837 92.2452 18.2401 92.143Z" fill="#7CC6EE"/>
<path d="M7.98046 102.327C7.97117 102.441 7.90627 102.569 7.78521 102.711C7.79432 102.597 7.85959 102.469 7.98046 102.327Z" fill="#7CC6EE"/>
<path d="M7.59706 102.864C7.59313 102.979 7.53499 103.111 7.42 103.257C7.42305 103.141 7.48294 103.012 7.59706 102.864Z" fill="#7CC6EE"/>
<path d="M7.23362 103.412C7.23091 103.527 7.17328 103.659 7.05903 103.806C7.06118 103.69 7.11994 103.56 7.23362 103.412Z" fill="#7CC6EE"/>
<path d="M7.61687 169.089C7.6088 169.205 7.54492 169.334 7.42403 169.474C7.4317 169.358 7.49637 169.23 7.61687 169.089Z" fill="#7CC6EE"/>
<path d="M160.143 147.697C160.043 147.664 159.942 147.579 159.836 147.437C159.934 147.469 160.038 147.556 160.143 147.697Z" fill="#7CC6EE"/>
<path d="M8.14722 168.35C8.139 168.463 8.07658 168.593 7.9572 168.736C7.9645 168.621 8.02875 168.494 8.14722 168.35Z" fill="#7CC6EE"/>
<path d="M10.7226 165.077C10.706 165.191 10.6329 165.315 10.5023 165.449C10.5186 165.334 10.5924 165.211 10.7226 165.077Z" fill="#7CC6EE"/>
<path d="M18.0583 158.538C18.0167 158.645 17.9178 158.75 17.7608 158.851C17.8022 158.743 17.9016 158.64 18.0583 158.538Z" fill="#7CC6EE"/>
<path d="M161.766 150.249C161.667 150.214 161.575 150.126 161.478 149.983C161.573 150.018 161.672 150.107 161.766 150.249Z" fill="#7CC6EE"/>
<path d="M161.389 149.519C161.286 149.485 161.201 149.399 161.111 149.262C161.206 149.296 161.306 149.382 161.389 149.519Z" fill="#7CC6EE"/>
<path d="M121.242 107.636C121.246 107.521 121.306 107.392 121.42 107.245C121.416 107.359 121.357 107.49 121.242 107.636Z" fill="#7CC6EE"/>
<path d="M159.048 146.237C158.948 146.207 158.848 146.123 158.741 145.984C158.838 146.015 158.942 146.099 159.048 146.237Z" fill="#7CC6EE"/>
<path d="M18.5233 143.071C18.619 143.082 18.7097 143.143 18.8091 143.248C18.7179 143.234 18.6182 143.178 18.5233 143.071Z" fill="#7CC6EE"/>
<path d="M69.467 136.755C69.3726 136.743 69.2852 136.682 69.1892 136.58C69.2785 136.594 69.3762 136.649 69.467 136.755Z" fill="#7CC6EE"/>
<path d="M110.804 118.193C110.846 118.085 110.946 117.98 111.104 117.882C111.062 117.991 110.962 118.093 110.804 118.193Z" fill="#7CC6EE"/>
<path d="M22.638 155.805C22.6016 155.888 22.5234 155.948 22.3937 156.005C22.4268 155.93 22.5114 155.856 22.638 155.805Z" fill="#7CC6EE"/>
<path d="M150.779 138.591C150.722 138.609 150.658 138.587 150.573 138.54C150.625 138.527 150.698 138.54 150.779 138.591Z" fill="#7CC6EE"/>
<path d="M89.7787 85.0748C89.7641 85.1205 89.7283 85.1365 89.6365 85.1345C89.6395 85.0927 89.6984 85.0689 89.7787 85.0748Z" fill="#90DBF6"/>
<path d="M82.068 149.354C82.0394 149.37 82.0127 149.351 81.977 149.305C82.0077 149.272 82.0417 149.286 82.068 149.354Z" fill="#7CC6EE"/>
<path d="M72.0105 139.311C72.0078 139.339 71.9441 139.282 71.9297 139.267C71.9568 139.236 71.9894 139.246 72.0105 139.311Z" fill="#7CC6EE"/>
<path d="M161.532 27.5419C161.495 27.5169 161.491 27.482 161.517 27.4042C161.568 27.3994 161.593 27.436 161.605 27.4765C161.609 27.4899 161.58 27.5133 161.532 27.5419Z" fill="#9CE6FB"/>
<path d="M71.8443 139.152C71.8423 139.179 71.7792 139.119 71.7668 139.102C71.7968 139.071 71.8274 139.084 71.8443 139.152Z" fill="#7CC6EE"/>
</svg>
